<svg xmlns="http://www.w3.org/2000/svg" width="39" height="30" viewBox="0 0 39 30">
    <g fill-rule="nonzero">
        <path d="M22.476 20.367c2.302-.97 4.12-2.291 5.45-3.963 1.333-1.672 1.999-3.493 1.999-5.462 0-1.97-.666-3.79-1.998-5.463-1.332-1.672-3.149-2.993-5.451-3.964C20.173.545 17.669.06 14.962.06c-2.706 0-5.21.485-7.513 1.456-2.302.97-4.12 2.292-5.451 3.964C.666 7.15 0 8.972 0 10.942c0 1.686.504 3.273 1.51 4.76 1.005 1.488 2.387 2.743 4.144 3.763-.142.34-.287.651-.436.935a5.388 5.388 0 0 1-.531.818 73.29 73.29 0 0 0-.479.616 8.448 8.448 0 0 1-.552.627c-.255.27-.418.446-.49.531 0-.014-.028.018-.084.096-.057.078-.089.113-.096.107-.007-.008-.035.027-.085.105l-.074.117-.054.106a.445.445 0 0 0-.042.128.832.832 0 0 0-.01.138c0 .05.006.095.02.138.029.184.11.332.245.446.135.113.28.17.436.17h.064a17.82 17.82 0 0 0 1.827-.34c2.182-.567 4.152-1.474 5.909-2.72 1.275.226 2.522.34 3.74.34 2.707 0 5.211-.485 7.514-1.456zm-11.892-1.774l-.935.659c-.397.269-.836.545-1.317.829l.744-1.786-2.062-1.19c-1.36-.793-2.416-1.728-3.167-2.805-.751-1.077-1.126-2.196-1.126-3.358 0-1.446.556-2.799 1.668-4.06C5.501 5.621 7 4.622 8.884 3.885c1.885-.736 3.91-1.105 6.079-1.105 2.167 0 4.194.369 6.078 1.105 1.884.737 3.383 1.736 4.495 2.997 1.113 1.261 1.668 2.614 1.668 4.06 0 1.445-.555 2.798-1.668 4.059-1.112 1.261-2.61 2.26-4.495 2.997-1.884.736-3.91 1.105-6.078 1.105-1.063 0-2.147-.1-3.252-.298l-1.127-.212z"/>
        <path d="M36.577 21.153c1.006-1.481 1.509-3.071 1.509-4.772 0-1.742-.532-3.372-1.594-4.888-1.063-1.516-2.508-2.777-4.336-3.783.326 1.063.489 2.14.489 3.23 0 1.9-.474 3.699-1.424 5.4-.95 1.7-2.31 3.2-4.08 4.505-1.644 1.19-3.515 2.104-5.612 2.741a22.454 22.454 0 0 1-6.567.957c-.425 0-1.049-.028-1.87-.085 2.848 1.87 6.192 2.805 10.031 2.805 1.219 0 2.466-.113 3.741-.34 1.757 1.247 3.727 2.154 5.908 2.72.51.129 1.12.242 1.828.341a.64.64 0 0 0 .468-.149.787.787 0 0 0 .276-.467c-.006-.085 0-.131.022-.138.02-.007.017-.053-.011-.138a22.164 22.164 0 0 0-.042-.128l-.053-.106a1.018 1.018 0 0 0-.075-.116.934.934 0 0 0-.085-.107 2.69 2.69 0 0 1-.095-.106 14.818 14.818 0 0 0-.574-.627 8.412 8.412 0 0 1-.552-.626 64.607 64.607 0 0 0-.479-.617 5.375 5.375 0 0 1-.531-.818 11.707 11.707 0 0 1-.436-.935c1.757-1.021 3.138-2.271 4.144-3.753z"/>
    </g>
</svg>
